<svg version="1.1" xmlns="http://www.w3.org/2000/svg" xmlns:xlink="http://www.w3.org/1999/xlink" width="116.99999" height="53.84863" viewBox="0,0,116.99999,53.84863"><g transform="translate(-182.55002,-140.38502)"><g data-paper-data="{&quot;isPaintingLayer&quot;:true}" fill-rule="nonzero" stroke-linejoin="miter" stroke-miterlimit="10" stroke-dasharray="" stroke-dashoffset="0" style="mix-blend-mode: normal"><path d="M189.00002,194.23366v-28.23366h108v28.23366z" fill="#eae484" stroke="#000000" stroke-width="0" stroke-linecap="butt"/><path d="M256.80002,153.31499l-10,18.11129" fill="none" stroke="#eae484" stroke-width="5.5" stroke-linecap="round"/><path d="M249.80002,178.83546l-41.5,-27.99018" fill="none" stroke="#eae484" stroke-width="5.5" stroke-linecap="round"/><path d="M195.30002,180.54292l0.5,-39.63751l-1.5,36.91243l46,-15.1118" fill="none" stroke="#eae484" stroke-width="5.5" stroke-linecap="round"/><path d="M222.30003,178.06556l-2,-27.25079" fill="none" stroke="#eae484" stroke-width="5.5" stroke-linecap="round"/><path d="M197.80003,154.03533l16,23.78251" fill="none" stroke="#eae484" stroke-width="5.5" stroke-linecap="round"/><path d="M230.30002,180.79065l-2.5,-22.04837" fill="none" stroke="#eae484" stroke-width="5.5" stroke-linecap="round"/><path d="M209.80003,177.5701l-1,-26.50758" fill="none" stroke="#eae484" stroke-width="5.5" stroke-linecap="round"/><path d="M204.30003,179.05649l-19,-20.56196" fill="none" stroke="#eae484" stroke-width="5.5" stroke-linecap="round"/><path d="M236.30002,151.55799l-4.5,22.79157" fill="none" stroke="#eae484" stroke-width="5.5" stroke-linecap="round"/><path d="M242.30002,157.99908l7,15.855" fill="none" stroke="#eae484" stroke-width="5.5" stroke-linecap="round"/><path d="M226.30002,143.13502l15,35.17829" fill="none" stroke="#eae484" stroke-width="5.5" stroke-linecap="round"/><path d="M248.30002,161.71509l2.5,8.91844" fill="none" stroke="#eae484" stroke-width="5.5" stroke-linecap="round"/><path d="M261.30002,150.81477l0.5,27.74625" fill="none" stroke="#eae484" stroke-width="5.5" stroke-linecap="round"/><path d="M270.30002,178.31331l3,-20.31423" fill="none" stroke="#eae484" stroke-width="5.5" stroke-linecap="round"/><path d="M259.30002,144.12594l1.5,43.35353" fill="none" stroke="#eae484" stroke-width="5.5" stroke-linecap="round"/><path d="M284.30002,178.06556v-22.2961" fill="none" stroke="#eae484" stroke-width="5.5" stroke-linecap="round"/><path d="M284.80002,175.83596l-11.5,-32.20547" fill="none" stroke="#eae484" stroke-width="5.5" stroke-linecap="round"/><path d="M289.30002,151.06252v30.47133" fill="none" stroke="#eae484" stroke-width="5.5" stroke-linecap="round"/><path d="M296.80002,163.44923l-11.5,16.59821" fill="none" stroke="#eae484" stroke-width="5.5" stroke-linecap="round"/><path d="M251.80002,163.44923l43.5,17.83688" fill="none" stroke="#eae484" stroke-width="5.5" stroke-linecap="round"/></g></g></svg>