<svg version="1.1" xmlns="http://www.w3.org/2000/svg" xmlns:xlink="http://www.w3.org/1999/xlink" width="260" height="260" viewBox="0,0,260,260"><g transform="translate(-109.55,54.27)"><g data-paper-data="{&quot;isPaintingLayer&quot;:true}" fill-rule="nonzero" stroke-linejoin="miter" stroke-miterlimit="10" stroke-dasharray="" stroke-dashoffset="0" style="mix-blend-mode: normal"><path d="M189.00006,194.23367v-28.23366h108v28.23366z" fill="#eae484" stroke="#000000" stroke-width="0" stroke-linecap="butt"/><path d="M256.80003,85.69339l-10,56.60951" fill="none" stroke="#eae484" stroke-width="5.5" stroke-linecap="round"/><path d="M249.80007,165.46134l-41.5,-87.4874" fill="none" stroke="#eae484" stroke-width="5.5" stroke-linecap="round"/><path d="M195.30007,170.79824l0.5,-123.89283l-1.5,115.3752l46,-47.23414" fill="none" stroke="#eae484" stroke-width="5.5" stroke-linecap="round"/><path d="M220.30007,77.87862l2,85.17632" fill="none" stroke="#eae484" stroke-width="5.5" stroke-linecap="round"/><path d="M197.80007,87.94493l16,74.3357" fill="none" stroke="#eae484" stroke-width="5.5" stroke-linecap="round"/><path d="M230.30007,171.57256l-2.5,-68.91539" fill="none" stroke="#eae484" stroke-width="5.5" stroke-linecap="round"/><path d="M208.80007,78.65297l1,82.85332" fill="none" stroke="#eae484" stroke-width="5.5" stroke-linecap="round"/><path d="M204.30007,166.1522l-19,-64.26939" fill="none" stroke="#eae484" stroke-width="5.5" stroke-linecap="round"/><path d="M236.30007,80.20163l-4.5,71.23838" fill="none" stroke="#eae484" stroke-width="5.5" stroke-linecap="round"/><path d="M249.30007,149.89131l-7,-49.55712" fill="none" stroke="#eae484" stroke-width="5.5" stroke-linecap="round"/><path d="M226.30007,53.87441l15,109.95488" fill="none" stroke="#eae484" stroke-width="5.5" stroke-linecap="round"/><path d="M248.30007,111.94913l2.5,27.87587" fill="none" stroke="#eae484" stroke-width="5.5" stroke-linecap="round"/><path d="M261.80003,164.60358l-0.5,-86.72498" fill="none" stroke="#eae484" stroke-width="5.5" stroke-linecap="round"/><path d="M270.30003,163.82929l3,-63.49508" fill="none" stroke="#eae484" stroke-width="5.5" stroke-linecap="round"/><path d="M259.30003,56.97168l1.5,135.50779" fill="none" stroke="#eae484" stroke-width="5.5" stroke-linecap="round"/><path d="M284.30003,163.05495v-69.68971" fill="none" stroke="#eae484" stroke-width="5.5" stroke-linecap="round"/><path d="M273.30003,55.42305l11.5,100.66292" fill="none" stroke="#eae484" stroke-width="5.5" stroke-linecap="round"/><path d="M289.30003,78.65297v95.24261" fill="none" stroke="#eae484" stroke-width="5.5" stroke-linecap="round"/><path d="M285.30003,169.2496l11.5,-51.88013" fill="none" stroke="#eae484" stroke-width="5.5" stroke-linecap="round"/><path d="M295.30007,173.12125l-43.5,-55.75179" fill="none" stroke="#eae484" stroke-width="5.5" stroke-linecap="round"/></g></g></svg>